<svg xmlns="http://www.w3.org/2000/svg" viewBox="0 0 24 24" id="gitlab"><path fill="#E24329" d="m12 23.054 4.419-13.6H7.581L12 23.054z"></path><path fill="#FC6D26" d="m12 23.054-4.419-13.6H1.388L12 23.054z"></path><path fill="#FCA326" d="M1.388 9.453.045 13.586a.917.917 0 0 0 .332 1.023L12 23.054 1.388 9.453z"></path><path fill="#E24329" d="M1.388 9.454h6.193L4.919 1.262a.457.457 0 0 0-.87 0L1.388 9.454z"></path><path fill="#FC6D26" d="m12 23.054 4.419-13.6h6.193L12 23.054z"></path><path fill="#FCA326" d="m22.612 9.453 1.343 4.133a.917.917 0 0 1-.332 1.023L12 23.054 22.612 9.453z"></path><path fill="#E24329" d="M22.612 9.454h-6.193l2.662-8.191a.457.457 0 0 1 .87 0l2.661 8.191z"></path></svg>